<svg width="1200" height="800" viewBox="0 0 1200 800" xmlns="http://www.w3.org/2000/svg">
  <rect width="1200" height="800" fill="#0f766e"/>
  <circle cx="985" cy="150" r="130" fill="#99f6e4" fill-opacity="0.32"/>
  <rect y="570" width="1200" height="230" fill="#0f172a" fill-opacity="0.2"/>
  <path d="M594 188h28l38 162h-24l-13-54h-52l-13 54h-24l38-162h22zm-14 88h34l-17-72-17 72z" fill="#f8fafc"/>
  <path d="M563 350h74l42 230h-32l-20-58h-91l-20 58h-31l40-230h38zm-18 120h74l-37-106-37 106z" fill="#f8fafc"/>
  <path d="M522 580h156l28 132H494l28-132z" fill="#e2e8f0"/>
  <rect x="136" y="484" width="130" height="228" rx="18" fill="#ccfbf1" fill-opacity="0.48"/>
  <rect x="940" y="442" width="164" height="270" rx="18" fill="#ccfbf1" fill-opacity="0.4"/>
  <text x="88" y="118" fill="#f8fafc" font-family="Arial, sans-serif" font-size="58" font-weight="700">Paris</text>
  <text x="88" y="170" fill="#d1fae5" font-family="Arial, sans-serif" font-size="28">Tour Eiffel et skyline</text>
</svg>
