<svg width="1200" height="800" viewBox="0 0 1200 800" fill="none" xmlns="http://www.w3.org/2000/svg">
  <rect width="1200" height="800" fill="#7C2D12"/>
  <circle cx="1040" cy="110" r="210" fill="#F97316" fill-opacity="0.25"/>
  <circle cx="180" cy="680" r="250" fill="#FDBA74" fill-opacity="0.22"/>
  <path d="M165 210H559C597 210 627 240 627 278V583C627 621 597 651 559 651H165C127 651 97 621 97 583V278C97 240 127 210 165 210Z" fill="#FFEDD5"/>
  <path d="M268 210H564C601 210 631 240 631 278V583C631 621 601 651 564 651H268V210Z" fill="#FED7AA"/>
  <path d="M750 256H1040V315H750V256Z" fill="#FFEDD5"/>
  <path d="M750 366H1040V425H750V366Z" fill="#FFEDD5"/>
  <path d="M750 476H980V535H750V476Z" fill="#FFEDD5"/>
  <path d="M162 258H196V603H162V258Z" fill="#9A3412"/>
  <path d="M268 258H302V603H268V258Z" fill="#9A3412"/>
  <text x="92" y="122" fill="#FFF7ED" font-family="Arial, sans-serif" font-size="60" font-weight="700">Histoire</text>
  <text x="92" y="178" fill="#FED7AA" font-family="Arial, sans-serif" font-size="28">Chronologie, dates cles et reperes culturels</text>
</svg>
